<?xml version="1.0" encoding="UTF-8" standalone="no"?>
<svg
   xmlns:dc="http://purl.org/dc/elements/1.1/"
   xmlns:cc="http://creativecommons.org/ns#"
   xmlns:rdf="http://www.w3.org/1999/02/22-rdf-syntax-ns#"
   xmlns:svg="http://www.w3.org/2000/svg"
   xmlns="http://www.w3.org/2000/svg"
   xmlns:sodipodi="http://sodipodi.sourceforge.net/DTD/sodipodi-0.dtd"
   xmlns:inkscape="http://www.inkscape.org/namespaces/inkscape"
   width="120.28701mm"
   height="62.019356mm"
   viewBox="0 0 120.28701 62.019356"
   version="1.1"
   id="svg8"
   inkscape:version="1.0.2 (e86c8708, 2021-01-15)"
   sodipodi:docname="logo.svg"
   inkscape:export-filename="logo.png"
   inkscape:export-xdpi="48.330002"
   inkscape:export-ydpi="48.330002">
  <defs
     id="defs2">
    <marker
       style="overflow:visible"
       id="marker1997"
       refX="0"
       refY="0"
       orient="auto"
       inkscape:stockid="DotM"
       inkscape:isstock="true">
      <path
         transform="matrix(0.4,0,0,0.4,2.96,0.4)"
         style="fill:#ffffff;fill-opacity:1;fill-rule:evenodd;stroke:#000000;stroke-width:1pt;stroke-opacity:1"
         d="m -2.5,-1 c 0,2.76 -2.24,5 -5,5 -2.76,0 -5,-2.24 -5,-5 0,-2.76 2.24,-5 5,-5 2.76,0 5,2.24 5,5 z"
         id="path1995" />
    </marker>
    <marker
       style="overflow:visible"
       id="marker1911"
       refX="0"
       refY="0"
       orient="auto"
       inkscape:stockid="DotM"
       inkscape:isstock="true">
      <path
         transform="matrix(0.4,0,0,0.4,2.96,0.4)"
         style="fill:#ffffff;fill-opacity:1;fill-rule:evenodd;stroke:#000000;stroke-width:1pt;stroke-opacity:1"
         d="m -2.5,-1 c 0,2.76 -2.24,5 -5,5 -2.76,0 -5,-2.24 -5,-5 0,-2.76 2.24,-5 5,-5 2.76,0 5,2.24 5,5 z"
         id="path1909" />
    </marker>
    <marker
       style="overflow:visible"
       id="marker1809"
       refX="0"
       refY="0"
       orient="auto"
       inkscape:stockid="DotM"
       inkscape:isstock="true"
       inkscape:collect="always">
      <path
         transform="matrix(0.4,0,0,0.4,2.96,0.4)"
         style="fill:#ffffff;fill-opacity:1;fill-rule:evenodd;stroke:#000000;stroke-width:1pt;stroke-opacity:1"
         d="m -2.5,-1 c 0,2.76 -2.24,5 -5,5 -2.76,0 -5,-2.24 -5,-5 0,-2.76 2.24,-5 5,-5 2.76,0 5,2.24 5,5 z"
         id="path1807" />
    </marker>
    <marker
       style="overflow:visible"
       id="marker1593"
       refX="0"
       refY="0"
       orient="auto"
       inkscape:stockid="DotM"
       inkscape:isstock="true">
      <path
         transform="matrix(0.4,0,0,0.4,2.96,0.4)"
         style="fill:#ffffff;fill-opacity:0.995968;fill-rule:evenodd;stroke:#ffffff;stroke-width:1pt;stroke-opacity:1"
         d="m -2.5,-1 c 0,2.76 -2.24,5 -5,5 -2.76,0 -5,-2.24 -5,-5 0,-2.76 2.24,-5 5,-5 2.76,0 5,2.24 5,5 z"
         id="path1591" />
    </marker>
    <marker
       style="overflow:visible"
       id="marker1383"
       refX="0"
       refY="0"
       orient="auto"
       inkscape:stockid="DotM"
       inkscape:isstock="true"
       inkscape:collect="always">
      <path
         transform="matrix(0.4,0,0,0.4,2.96,0.4)"
         style="fill:#ffffff;fill-opacity:1;fill-rule:evenodd;stroke:#000000;stroke-width:1pt;stroke-opacity:1"
         d="m -2.5,-1 c 0,2.76 -2.24,5 -5,5 -2.76,0 -5,-2.24 -5,-5 0,-2.76 2.24,-5 5,-5 2.76,0 5,2.24 5,5 z"
         id="path1381" />
    </marker>
    <marker
       style="overflow:visible"
       id="EmptyTriangleOutS"
       refX="0"
       refY="0"
       orient="auto"
       inkscape:stockid="EmptyTriangleOutS"
       inkscape:isstock="true">
      <path
         transform="matrix(0.2,0,0,0.2,-0.6,0)"
         style="fill:#ffffff;fill-rule:evenodd;stroke:#000000;stroke-width:1pt;stroke-opacity:1"
         d="M 5.77,0 -2.88,5 V -5 Z"
         id="path1117" />
    </marker>
    <marker
       style="overflow:visible"
       id="marker1589"
       refX="0"
       refY="0"
       orient="auto"
       inkscape:stockid="Arrow1Mend"
       inkscape:isstock="true">
      <path
         transform="matrix(-0.4,0,0,-0.4,-4,0)"
         style="fill:#734f96;fill-opacity:1;fill-rule:evenodd;stroke:#734f96;stroke-width:1pt;stroke-opacity:1"
         d="M 0,0 5,-5 -12.5,0 5,5 Z"
         id="path1587" />
    </marker>
    <marker
       style="overflow:visible"
       id="marker1537"
       refX="0"
       refY="0"
       orient="auto"
       inkscape:stockid="Arrow1Mend"
       inkscape:isstock="true">
      <path
         transform="matrix(-0.4,0,0,-0.4,-4,0)"
         style="fill:#734f96;fill-opacity:1;fill-rule:evenodd;stroke:#734f96;stroke-width:1pt;stroke-opacity:1"
         d="M 0,0 5,-5 -12.5,0 5,5 Z"
         id="path1535" />
    </marker>
  </defs>
  <sodipodi:namedview
     id="base"
     pagecolor="#ffffff"
     bordercolor="#666666"
     borderopacity="1.0"
     inkscape:pageopacity="0.0"
     inkscape:pageshadow="2"
     inkscape:zoom="1.3329752"
     inkscape:cx="177.53994"
     inkscape:cy="97.95387"
     inkscape:document-units="mm"
     inkscape:current-layer="layer1"
     inkscape:document-rotation="0"
     showgrid="false"
     inkscape:window-width="1440"
     inkscape:window-height="791"
     inkscape:window-x="0"
     inkscape:window-y="25"
     inkscape:window-maximized="0"
     fit-margin-top="0"
     fit-margin-left="0"
     fit-margin-right="0"
     fit-margin-bottom="0">
    <inkscape:grid
       type="xygrid"
       id="grid917"
       originx="-6.0202356"
       originy="-156.87013" />
  </sodipodi:namedview>
  <metadata
     id="metadata5">
    <rdf:RDF>
      <cc:Work
         rdf:about="">
        <dc:format>image/svg+xml</dc:format>
        <dc:type
           rdf:resource="http://purl.org/dc/dcmitype/StillImage" />
        <dc:title></dc:title>
      </cc:Work>
    </rdf:RDF>
  </metadata>
  <g
     inkscape:label="Layer 1"
     inkscape:groupmode="layer"
     id="layer1"
     transform="translate(-6.0202346,-156.87015)">
    <path
       style="fill:none;stroke:#ffffff;stroke-width:5;stroke-linecap:butt;stroke-linejoin:miter;stroke-miterlimit:4;stroke-dasharray:none;stroke-opacity:1"
       d="m 10.583332,166.6875 v 26.45833 l 10.583334,10.58333 21.166666,5.29167 31.750001,-10.58333 47.624997,15.875 v -47.625 L 111.125,171.97916 74.083333,161.39583 10.583332,166.6875 c 63.5,-5.29167 63.5,-5.29167 63.5,-5.29167"
       id="path1993"
       sodipodi:nodetypes="cccccccccc" />
    <path
       style="fill:#ffffff;stroke:#000000;stroke-width:2;stroke-linecap:butt;stroke-linejoin:miter;stroke-miterlimit:4;stroke-dasharray:none;stroke-opacity:1;marker-mid:url(#marker1383)"
       d="m 10.583332,166.6875 v 26.45833 l 10.583334,10.58333 21.166666,5.29167 31.750001,-10.58333 47.624997,15.875 v -47.625 L 111.125,171.97916 74.083333,161.39583 10.583332,166.6875 c 63.5,-5.29167 63.5,-5.29167 63.5,-5.29167"
       id="path1379"
       sodipodi:nodetypes="cccccccccc" />
    <text
       xml:space="preserve"
       style="font-size:28.1564px;line-height:1.25;font-family:'Clarendon BT';-inkscape-font-specification:'Clarendon BT';fill:#734f96;fill-opacity:1;stroke-width:0.264583"
       x="17.969273"
       y="191.99811"
       id="text855"><tspan
         sodipodi:role="line"
         id="tspan853"
         x="17.969273"
         y="191.99811"
         style="fill:#734f96;fill-opacity:1;stroke-width:0.264583">finterp</tspan></text>
    <path
       style="fill:none;stroke:#000000;stroke-width:2;stroke-linecap:butt;stroke-linejoin:miter;stroke-miterlimit:4;stroke-dasharray:none;stroke-opacity:1;marker-mid:url(#marker1809)"
       d="m 10.583332,166.6875 v 26.45833 l 10.583334,10.58333 21.166666,5.29167 31.750001,-10.58333 47.624997,15.875 v -47.625 L 111.125,171.97916 74.083333,161.39583 10.583332,166.6875 c 63.5,-5.29167 63.5,-5.29167 63.5,-5.29167"
       id="path949"
       sodipodi:nodetypes="cccccccccc" />
  </g>
</svg>
